<?xml version="1.0" standalone="no"?>
<!DOCTYPE svg PUBLIC "-//W3C//DTD SVG 20010904//EN"
 "http://www.w3.org/TR/2001/REC-SVG-20010904/DTD/svg10.dtd">
<svg version="1.0" xmlns="http://www.w3.org/2000/svg"
 width="16.000000pt" height="16.000000pt" viewBox="0 0 16.000000 16.000000"
 preserveAspectRatio="xMidYMid meet">
<metadata>
Created by potrace 1.11, written by Peter Selinger 2001-2013
</metadata>
<g transform="translate(0.000000,16.000000) scale(0.002319,-0.002319)"
fill="#000000" stroke="none">
<path d="M4313 5648 c-36 -39 -119 -330 -138 -483 -3 -27 -10 -75 -16 -105
-18 -101 -31 -361 -35 -749 -4 -357 -3 -390 16 -479 24 -116 25 -150 4 -173
-19 -21 -19 -21 -170 52 -67 33 -128 59 -136 59 -8 0 -18 4 -23 9 -10 10 -83
32 -190 57 -132 32 -452 53 -545 35 -30 -6 -86 -15 -125 -21 -177 -27 -327
-64 -515 -127 -91 -30 -169 -59 -174 -64 -6 -5 -16 -9 -23 -9 -8 0 -33 -9 -55
-20 -23 -11 -46 -20 -51 -20 -14 0 -196 -90 -202 -100 -4 -6 -25 -19 -49 -30
-23 -10 -49 -26 -56 -35 -7 -8 -18 -15 -24 -15 -21 0 -235 -224 -242 -253 -11
-45 26 -77 90 -77 28 0 68 5 89 11 32 9 42 8 57 -6 22 -20 18 -36 -31 -132
-46 -90 -70 -157 -103 -290 -23 -90 -26 -122 -26 -276 0 -168 1 -179 31 -269
28 -87 62 -170 94 -228 7 -14 32 -62 54 -106 23 -45 48 -87 56 -94 8 -7 15
-18 15 -25 0 -6 9 -20 20 -30 11 -10 20 -23 20 -30 0 -6 14 -24 30 -40 17 -16
30 -34 30 -40 0 -7 9 -20 20 -30 11 -10 20 -23 20 -29 0 -7 23 -34 50 -61 28
-27 50 -54 50 -60 0 -17 263 -272 288 -280 20 -6 22 -3 22 38 0 24 -9 73 -20
107 -17 54 -20 90 -20 267 0 213 5 250 51 388 26 75 126 280 145 296 8 6 14
17 14 23 0 7 14 25 30 41 17 16 30 33 30 39 0 14 112 126 126 126 6 0 19 9 29
20 10 11 24 20 30 20 7 0 18 7 25 15 17 20 100 59 193 89 93 31 232 35 331 10
66 -16 237 -96 256 -120 7 -8 18 -14 24 -14 14 0 166 -152 166 -166 0 -6 11
-21 25 -34 28 -26 143 -255 174 -345 41 -120 51 -202 51 -401 0 -164 -3 -200
-20 -254 -20 -62 -27 -130 -13 -130 12 0 123 113 123 125 0 6 14 24 30 40 17
16 30 34 30 40 0 7 9 20 20 30 11 10 20 23 20 30 0 7 9 20 20 30 11 10 20 23
20 30 0 7 9 20 20 30 11 10 20 24 20 30 0 7 7 18 15 25 9 7 25 33 35 56 11 24
24 46 30 49 6 3 19 26 30 50 11 24 24 46 29 49 11 7 261 508 261 522 0 6 9 29
20 52 11 22 20 47 20 55 0 7 4 17 9 22 12 13 105 290 130 390 33 131 62 297
78 435 10 97 8 343 -4 440 -11 87 -76 355 -118 490 -13 41 -32 102 -41 135
-10 33 -25 78 -35 100 -9 22 -27 69 -40 105 -12 35 -30 80 -41 98 -27 48 -7
82 58 101 27 8 90 33 139 57 106 50 163 103 172 158 5 34 2 41 -38 82 -68 70
-184 122 -359 161 -36 8 -84 21 -108 29 -23 7 -55 14 -71 14 -53 0 -70 51 -32
95 18 20 61 108 61 123 0 5 10 28 22 53 16 32 23 68 26 137 2 51 0 92 -5 92
-12 0 -103 -93 -103 -107 0 -6 -7 -16 -15 -23 -9 -7 -25 -32 -35 -55 -40 -89
-80 -59 -80 61 0 113 -26 156 -67 112z"/>
</g>
</svg>
